<?xml version="1.0" encoding="utf-8"?>
<!-- Generator: Adobe Illustrator 16.0.0, SVG Export Plug-In . SVG Version: 6.00 Build 0)  -->
<!DOCTYPE svg PUBLIC "-//W3C//DTD SVG 1.1//EN" "http://www.w3.org/Graphics/SVG/1.1/DTD/svg11.dtd">
<svg version="1.1" id="Layer_1" xmlns="http://www.w3.org/2000/svg" xmlns:xlink="http://www.w3.org/1999/xlink" x="0px" y="0px"
	 width="255.118px" height="141.732px" viewBox="0 0 255.118 141.732" enable-background="new 0 0 255.118 141.732"
	 xml:space="preserve">
<g>
	<rect y="0" fill="#FFFFFF" width="255.118" height="141.732"/>
	<path fill="#197BB2" d="M28.066,37.419c0.975-0.014,1.81,0.167,2.52,0.543c0.696,0.375,1.225,0.975,1.601,1.81
		c0.362,0.835,0.557,1.935,0.557,3.327v30.408c0,1.393-0.195,2.492-0.557,3.328c-0.376,0.835-0.905,1.434-1.601,1.81
		c-0.71,0.376-1.545,0.557-2.52,0.543h-5.179v-41.77H28.066z M13.697,87.542h14.536c4.595-0.014,8.02-1.253,10.303-3.717
		c2.27-2.465,3.397-6.043,3.397-10.735V43.517c0-4.692-1.127-8.27-3.397-10.734c-2.283-2.464-5.708-3.704-10.303-3.717H13.697
		V87.542z"/>
	<polygon fill="#197BB2" points="56.97,37.419 72.843,37.419 72.843,29.065 47.781,29.065 47.781,87.542 72.843,87.542 
		72.843,79.188 56.97,79.188 56.97,62.063 69.584,62.063 69.584,53.709 56.97,53.709 	"/>
	<path fill="#197BB2" d="M77.354,43.1c0.014,2.367,0.348,4.483,1.002,6.349c0.641,1.852,1.49,3.522,2.562,4.999
		c1.058,1.476,2.228,2.84,3.508,4.079c1.267,1.239,2.548,2.437,3.815,3.578c1.281,1.142,2.451,2.312,3.509,3.509
		c1.072,1.184,1.921,2.479,2.576,3.856c0.64,1.379,0.974,2.91,0.988,4.623c0,1.392-0.195,2.492-0.585,3.327
		c-0.39,0.836-0.933,1.435-1.643,1.811c-0.71,0.376-1.559,0.557-2.534,0.543c-0.975,0.014-1.824-0.167-2.534-0.543
		s-1.253-0.975-1.643-1.811c-0.39-0.835-0.584-1.936-0.584-3.327v-4.177h-8.688v3.592c0,3.133,0.515,5.778,1.545,7.964
		s2.562,3.856,4.595,5.013c2.033,1.142,4.553,1.712,7.56,1.727c3.007-0.015,5.527-0.585,7.561-1.727
		c2.033-1.156,3.564-2.827,4.594-5.013s1.545-4.831,1.545-7.964c-0.014-2.381-0.348-4.497-0.988-6.349
		c-0.654-1.852-1.504-3.522-2.576-4.998c-1.058-1.476-2.227-2.84-3.508-4.08c-1.267-1.239-2.548-2.437-3.815-3.578
		c-1.281-1.142-2.45-2.312-3.509-3.509c-1.072-1.183-1.921-2.478-2.576-3.857c-0.64-1.378-0.975-2.924-0.988-4.622
		c0.014-2.075,0.403-3.55,1.197-4.456c0.793-0.891,1.921-1.336,3.397-1.309c1.476-0.027,2.604,0.418,3.397,1.309
		c0.793,0.905,1.183,2.381,1.197,4.456v2.422h8.688V43.1c0-3.132-0.515-5.792-1.518-7.978c-1.016-2.186-2.534-3.843-4.539-4.999
		c-2.005-1.142-4.497-1.712-7.477-1.727c-2.98,0.014-5.472,0.585-7.477,1.727c-2.005,1.155-3.522,2.813-4.539,4.999
		C77.869,37.308,77.354,39.967,77.354,43.1"/>
	<path fill="#197BB2" d="M109.349,29.065v44.525c0,3.134,0.515,5.778,1.545,7.964c1.03,2.187,2.562,3.857,4.594,5.013
		c2.033,1.142,4.553,1.713,7.561,1.727c3.007-0.014,5.528-0.585,7.56-1.727c2.033-1.155,3.564-2.826,4.595-5.013
		c1.03-2.186,1.545-4.83,1.545-7.964V29.065h-8.688v45.11c0,1.393-0.195,2.492-0.585,3.328c-0.39,0.835-0.933,1.434-1.643,1.81
		s-1.56,0.557-2.534,0.543c-0.975,0.014-1.824-0.167-2.534-0.543c-0.71-0.376-1.253-0.975-1.643-1.81
		c-0.39-0.836-0.585-1.936-0.585-3.328v-45.11H109.349z"/>
	<polygon fill="#197BB2" points="162.646,87.542 172.087,87.542 172.087,29.065 163.899,29.065 163.899,64.068 154.46,29.065 
		142.932,29.065 142.932,87.542 151.202,87.542 151.202,45.188 	"/>
	<path fill="#197BB2" d="M16.582,104.048c0.465-0.004,0.811,0.129,1.027,0.391c0.217,0.266,0.325,0.682,0.321,1.246v0.887
		c0,0.421-0.064,0.754-0.192,1c-0.129,0.246-0.31,0.425-0.546,0.53c-0.237,0.103-0.521,0.155-0.851,0.152h-1.036v-4.206H16.582z
		 M16.485,110.526c0.402-0.004,0.727,0.054,0.979,0.171c0.253,0.121,0.438,0.321,0.554,0.603c0.12,0.284,0.177,0.67,0.177,1.159
		v1.387c0,0.39-0.052,0.7-0.157,0.932c-0.104,0.231-0.26,0.395-0.465,0.492c-0.201,0.099-0.454,0.148-0.75,0.145h-1.518v-4.888
		H16.485z M16.654,101.775h-3.998v15.912h4.167c1.329-0.004,2.328-0.326,3.007-0.967c0.674-0.64,1.016-1.576,1.016-2.808v-1.295
		c0.008-0.845-0.145-1.558-0.454-2.141c-0.309-0.58-0.818-1.004-1.521-1.27c0.586-0.261,1.02-0.655,1.297-1.186
		s0.417-1.201,0.413-2.02v-0.568c0.004-0.818-0.133-1.5-0.409-2.042c-0.273-0.542-0.699-0.947-1.277-1.216
		C18.312,101.907,17.565,101.775,16.654,101.775z"/>
	<path fill="#197BB2" d="M22.146,101.775v12.115c0,0.853,0.148,1.572,0.446,2.167c0.297,0.595,0.738,1.05,1.325,1.364
		c0.586,0.311,1.313,0.466,2.18,0.47c0.867-0.004,1.594-0.159,2.18-0.47c0.586-0.314,1.028-0.77,1.325-1.364
		s0.445-1.314,0.445-2.167v-12.115h-2.505v12.274c0,0.379-0.056,0.679-0.169,0.905c-0.112,0.228-0.269,0.391-0.474,0.493
		c-0.205,0.102-0.449,0.151-0.73,0.147c-0.281,0.004-0.526-0.046-0.73-0.147c-0.205-0.103-0.361-0.266-0.474-0.493
		c-0.112-0.227-0.168-0.526-0.168-0.905v-12.274H22.146z"/>
	<path fill="#197BB2" d="M31.347,105.594c0.004,0.645,0.101,1.22,0.289,1.728c0.185,0.504,0.43,0.959,0.739,1.36
		c0.305,0.401,0.642,0.772,1.012,1.11c0.365,0.337,0.734,0.663,1.1,0.974c0.369,0.311,0.706,0.628,1.012,0.954
		c0.309,0.322,0.554,0.675,0.742,1.05c0.185,0.375,0.281,0.792,0.285,1.258c0,0.379-0.056,0.678-0.168,0.905
		c-0.113,0.228-0.269,0.391-0.474,0.492c-0.205,0.103-0.449,0.152-0.73,0.148c-0.281,0.004-0.526-0.046-0.73-0.148
		c-0.205-0.102-0.361-0.265-0.474-0.492c-0.113-0.228-0.169-0.526-0.169-0.905v-1.137h-2.505v0.978c0,0.853,0.148,1.572,0.446,2.167
		c0.297,0.595,0.738,1.05,1.325,1.364c0.586,0.311,1.313,0.466,2.18,0.47c0.867-0.004,1.594-0.159,2.18-0.47
		c0.586-0.314,1.028-0.77,1.325-1.364c0.297-0.595,0.445-1.314,0.445-2.167c-0.004-0.648-0.1-1.224-0.285-1.728
		c-0.188-0.504-0.433-0.959-0.742-1.36c-0.306-0.401-0.643-0.772-1.012-1.11c-0.366-0.337-0.735-0.663-1.1-0.974
		c-0.37-0.311-0.707-0.628-1.012-0.954c-0.309-0.322-0.554-0.675-0.743-1.05c-0.185-0.375-0.281-0.795-0.285-1.258
		c0.004-0.564,0.117-0.966,0.345-1.212c0.229-0.242,0.554-0.364,0.979-0.356c0.426-0.008,0.751,0.114,0.979,0.356
		c0.229,0.246,0.341,0.647,0.346,1.212v0.659h2.505v-0.5c0-0.853-0.149-1.576-0.438-2.171c-0.293-0.595-0.73-1.046-1.309-1.359
		c-0.578-0.312-1.296-0.467-2.156-0.47c-0.859,0.003-1.578,0.158-2.155,0.47c-0.578,0.313-1.016,0.765-1.309,1.359
		C31.496,104.018,31.347,104.741,31.347,105.594"/>
	<rect x="40.524" y="101.775" fill="#197BB2" width="2.649" height="15.912"/>
	<polygon fill="#197BB2" points="50.592,117.688 53.314,117.688 53.314,101.775 50.954,101.775 50.954,111.3 48.232,101.775 
		44.908,101.775 44.908,117.688 47.292,117.688 47.292,106.162 	"/>
	<polygon fill="#197BB2" points="57.698,104.048 62.274,104.048 62.274,101.775 55.049,101.775 55.049,117.688 62.274,117.688 
		62.274,115.414 57.698,115.414 57.698,110.754 61.335,110.754 61.335,108.48 57.698,108.48 	"/>
	<path fill="#197BB2" d="M63.407,105.594c0.004,0.645,0.101,1.22,0.289,1.728c0.185,0.504,0.43,0.959,0.738,1.36
		c0.305,0.401,0.643,0.772,1.012,1.11c0.366,0.337,0.735,0.663,1.1,0.974c0.369,0.311,0.707,0.628,1.012,0.954
		c0.309,0.322,0.554,0.675,0.743,1.05c0.185,0.375,0.281,0.792,0.285,1.258c0,0.379-0.056,0.678-0.169,0.905
		c-0.112,0.228-0.269,0.391-0.474,0.492c-0.205,0.103-0.449,0.152-0.73,0.148c-0.281,0.004-0.526-0.046-0.73-0.148
		c-0.205-0.102-0.361-0.265-0.474-0.492c-0.113-0.228-0.169-0.526-0.169-0.905v-1.137h-2.505v0.978c0,0.853,0.148,1.572,0.446,2.167
		c0.297,0.595,0.738,1.05,1.324,1.364c0.586,0.311,1.313,0.466,2.18,0.47c0.867-0.004,1.594-0.159,2.18-0.47
		c0.586-0.314,1.028-0.77,1.325-1.364c0.297-0.595,0.446-1.314,0.446-2.167c-0.004-0.648-0.1-1.224-0.285-1.728
		c-0.188-0.504-0.434-0.959-0.742-1.36c-0.305-0.401-0.643-0.772-1.012-1.11c-0.366-0.337-0.735-0.663-1.1-0.974
		c-0.37-0.311-0.707-0.628-1.012-0.954c-0.31-0.322-0.554-0.675-0.743-1.05c-0.185-0.375-0.281-0.795-0.285-1.258
		c0.004-0.564,0.117-0.966,0.345-1.212c0.229-0.242,0.554-0.364,0.979-0.356c0.426-0.008,0.751,0.114,0.98,0.356
		c0.229,0.246,0.341,0.647,0.345,1.212v0.659h2.505v-0.5c0-0.853-0.149-1.576-0.438-2.171c-0.293-0.595-0.731-1.046-1.309-1.359
		c-0.578-0.312-1.296-0.467-2.156-0.47c-0.859,0.003-1.578,0.158-2.155,0.47c-0.579,0.313-1.016,0.765-1.309,1.359
		C63.555,104.018,63.407,104.741,63.407,105.594"/>
	<path fill="#197BB2" d="M72.246,105.594c0.004,0.645,0.101,1.22,0.289,1.728c0.185,0.504,0.43,0.959,0.739,1.36
		c0.305,0.401,0.642,0.772,1.012,1.11c0.365,0.337,0.735,0.663,1.1,0.974c0.369,0.311,0.707,0.628,1.012,0.954
		c0.309,0.322,0.554,0.675,0.742,1.05c0.185,0.375,0.281,0.792,0.285,1.258c0,0.379-0.056,0.678-0.168,0.905
		c-0.113,0.228-0.269,0.391-0.474,0.492c-0.205,0.103-0.45,0.152-0.731,0.148c-0.281,0.004-0.526-0.046-0.73-0.148
		c-0.205-0.102-0.361-0.265-0.474-0.492c-0.113-0.228-0.168-0.526-0.168-0.905v-1.137h-2.505v0.978c0,0.853,0.149,1.572,0.446,2.167
		s0.739,1.05,1.325,1.364c0.586,0.311,1.313,0.466,2.18,0.47c0.867-0.004,1.593-0.159,2.18-0.47c0.586-0.314,1.027-0.77,1.325-1.364
		c0.297-0.595,0.446-1.314,0.446-2.167c-0.004-0.648-0.101-1.224-0.286-1.728c-0.188-0.504-0.433-0.959-0.742-1.36
		c-0.305-0.401-0.643-0.772-1.012-1.11c-0.366-0.337-0.735-0.663-1.1-0.974c-0.369-0.311-0.707-0.628-1.012-0.954
		c-0.309-0.322-0.554-0.675-0.743-1.05c-0.185-0.375-0.281-0.795-0.285-1.258c0.004-0.564,0.116-0.966,0.345-1.212
		c0.229-0.242,0.554-0.364,0.98-0.356c0.425-0.008,0.75,0.114,0.979,0.356c0.229,0.246,0.341,0.647,0.345,1.212v0.659h2.505v-0.5
		c0-0.853-0.149-1.576-0.438-2.171c-0.293-0.595-0.73-1.046-1.309-1.359c-0.578-0.312-1.297-0.467-2.156-0.47
		c-0.859,0.003-1.578,0.158-2.156,0.47c-0.578,0.313-1.016,0.765-1.309,1.359C72.395,104.018,72.246,104.741,72.246,105.594"/>
	<path fill="#197BB2" d="M94.069,111.754v2.273c0,0.379-0.056,0.678-0.169,0.905c-0.112,0.228-0.269,0.391-0.474,0.492
		c-0.204,0.103-0.449,0.152-0.73,0.148c-0.281,0.004-0.525-0.046-0.73-0.148c-0.205-0.102-0.361-0.265-0.474-0.492
		s-0.168-0.526-0.168-0.905v-8.593c0.004-0.564,0.128-0.966,0.369-1.212c0.245-0.242,0.578-0.364,1.003-0.356
		c0.426-0.008,0.759,0.114,1.004,0.356c0.241,0.246,0.365,0.647,0.37,1.212v1.705h2.505v-1.546c0-0.853-0.148-1.576-0.446-2.171
		c-0.297-0.595-0.739-1.046-1.325-1.359c-0.586-0.312-1.313-0.467-2.18-0.47c-0.867,0.003-1.593,0.158-2.18,0.47
		c-0.586,0.313-1.028,0.765-1.325,1.359c-0.297,0.595-0.445,1.318-0.445,2.171v8.274c0,0.853,0.148,1.572,0.445,2.167
		c0.297,0.595,0.739,1.05,1.325,1.364c0.586,0.311,1.313,0.466,2.18,0.47c0.867-0.004,1.594-0.159,2.18-0.47
		c0.586-0.314,1.028-0.77,1.325-1.364c0.297-0.595,0.446-1.314,0.446-2.167v-2.114H94.069z"/>
	<path fill="#197BB2" d="M97.803,113.868c0,0.853,0.156,1.572,0.465,2.167c0.31,0.595,0.759,1.05,1.357,1.364
		c0.598,0.311,1.333,0.466,2.2,0.47c0.867-0.004,1.602-0.159,2.2-0.47c0.598-0.314,1.048-0.77,1.357-1.364s0.466-1.314,0.466-2.167
		v-8.274c0-0.853-0.157-1.576-0.466-2.171s-0.759-1.046-1.357-1.359c-0.598-0.312-1.333-0.467-2.2-0.47
		c-0.867,0.003-1.602,0.158-2.2,0.47c-0.599,0.313-1.048,0.765-1.357,1.359c-0.309,0.595-0.465,1.318-0.465,2.171V113.868z
		 M100.452,105.435c0.004-0.564,0.128-0.966,0.369-1.212c0.245-0.242,0.578-0.364,1.004-0.356c0.426-0.008,0.759,0.114,1.003,0.356
		c0.241,0.246,0.365,0.647,0.37,1.212v8.593c-0.004,0.564-0.129,0.966-0.37,1.212c-0.245,0.242-0.578,0.364-1.003,0.356
		c-0.426,0.008-0.759-0.114-1.004-0.356c-0.241-0.246-0.365-0.647-0.369-1.212V105.435z"/>
	<polygon fill="#197BB2" points="113.05,117.688 115.771,117.688 115.771,101.775 113.411,101.775 113.411,111.3 110.689,101.775 
		107.365,101.775 107.365,117.688 109.75,117.688 109.75,106.162 	"/>
	<path fill="#197BB2" d="M117.169,105.594c0.003,0.645,0.1,1.22,0.289,1.728c0.185,0.504,0.43,0.959,0.739,1.36
		c0.305,0.401,0.642,0.772,1.012,1.11c0.365,0.337,0.734,0.663,1.1,0.974c0.369,0.311,0.706,0.628,1.012,0.954
		c0.309,0.322,0.554,0.675,0.742,1.05c0.185,0.375,0.281,0.792,0.285,1.258c0,0.379-0.056,0.678-0.168,0.905
		c-0.113,0.228-0.269,0.391-0.474,0.492c-0.205,0.103-0.45,0.152-0.731,0.148c-0.281,0.004-0.526-0.046-0.73-0.148
		c-0.205-0.102-0.361-0.265-0.474-0.492c-0.112-0.228-0.168-0.526-0.168-0.905v-1.137h-2.505v0.978c0,0.853,0.149,1.572,0.446,2.167
		s0.739,1.05,1.325,1.364c0.586,0.311,1.313,0.466,2.18,0.47c0.867-0.004,1.594-0.159,2.179-0.47
		c0.586-0.314,1.028-0.77,1.325-1.364c0.297-0.595,0.445-1.314,0.445-2.167c-0.004-0.648-0.1-1.224-0.285-1.728
		c-0.189-0.504-0.434-0.959-0.743-1.36c-0.305-0.401-0.643-0.772-1.012-1.11c-0.366-0.337-0.735-0.663-1.1-0.974
		c-0.369-0.311-0.707-0.628-1.012-0.954c-0.309-0.322-0.554-0.675-0.743-1.05c-0.185-0.375-0.281-0.795-0.285-1.258
		c0.004-0.564,0.116-0.966,0.345-1.212c0.229-0.242,0.554-0.364,0.979-0.356c0.426-0.008,0.751,0.114,0.98,0.356
		c0.229,0.246,0.341,0.647,0.345,1.212v0.659h2.505v-0.5c0-0.853-0.149-1.576-0.438-2.171c-0.293-0.595-0.73-1.046-1.309-1.359
		c-0.578-0.312-1.296-0.467-2.155-0.47c-0.859,0.003-1.578,0.158-2.156,0.47c-0.578,0.313-1.016,0.765-1.309,1.359
		C117.317,104.018,117.169,104.741,117.169,105.594"/>
	<path fill="#197BB2" d="M126.226,101.775v12.115c0,0.853,0.148,1.572,0.445,2.167c0.297,0.595,0.738,1.05,1.324,1.364
		c0.587,0.311,1.313,0.466,2.181,0.47c0.867-0.004,1.594-0.159,2.18-0.47c0.586-0.314,1.027-0.77,1.325-1.364
		c0.297-0.595,0.445-1.314,0.445-2.167v-12.115h-2.506v12.274c0,0.379-0.056,0.679-0.168,0.905
		c-0.112,0.228-0.269,0.391-0.474,0.493c-0.205,0.102-0.45,0.151-0.73,0.147c-0.281,0.004-0.526-0.046-0.731-0.147
		c-0.204-0.103-0.36-0.266-0.474-0.493c-0.112-0.227-0.168-0.526-0.168-0.905v-12.274H126.226z"/>
	<polygon fill="#197BB2" points="135.764,117.688 142.772,117.688 142.772,115.414 138.413,115.414 138.413,101.775 
		135.764,101.775 	"/>
	<polygon fill="#197BB2" points="141.785,104.048 144.555,104.048 144.555,117.688 147.205,117.688 147.205,104.048 
		149.975,104.048 149.975,101.775 141.785,101.775 	"/>
	<rect x="150.963" y="101.775" fill="#197BB2" width="2.649" height="15.912"/>
	<polygon fill="#197BB2" points="161.03,117.688 163.752,117.688 163.752,101.775 161.392,101.775 161.392,111.3 158.67,101.775 
		155.346,101.775 155.346,117.688 157.73,117.688 157.73,106.162 	"/>
	<path fill="#197BB2" d="M169.461,111.095h1.204v2.933c0,0.375-0.056,0.678-0.168,0.905s-0.27,0.391-0.475,0.492
		c-0.204,0.103-0.449,0.152-0.73,0.148c-0.281,0.004-0.525-0.046-0.73-0.148c-0.204-0.102-0.361-0.265-0.474-0.492
		s-0.168-0.53-0.168-0.905v-8.593c0.004-0.564,0.128-0.966,0.369-1.212c0.245-0.242,0.578-0.364,1.003-0.356
		c0.426-0.008,0.759,0.114,1.004,0.356c0.241,0.246,0.365,0.647,0.369,1.212v1.705h2.506v-1.546c0-0.853-0.148-1.576-0.446-2.171
		c-0.297-0.595-0.738-1.046-1.324-1.359c-0.587-0.312-1.313-0.467-2.181-0.47c-0.867,0.003-1.593,0.158-2.18,0.47
		c-0.586,0.313-1.027,0.765-1.324,1.359c-0.298,0.595-0.446,1.318-0.446,2.171v8.274c0,0.853,0.148,1.572,0.446,2.167
		c0.297,0.595,0.738,1.05,1.324,1.364c0.587,0.311,1.313,0.466,2.18,0.47c0.867-0.004,1.594-0.159,2.181-0.47
		c0.586-0.314,1.027-0.77,1.324-1.364c0.298-0.595,0.446-1.314,0.446-2.167v-5.046h-3.71V111.095z"/>
	<path fill="#197BB2" d="M234.123,34.478c-5.465-5.462-13.02-8.841-21.363-8.841s-15.897,3.379-21.363,8.841
		c-5.464,5.461-8.844,13.008-8.844,21.345s3.38,15.885,8.844,21.346c5.466,5.462,13.02,8.842,21.363,8.842s15.898-3.38,21.363-8.842
		c5.464-5.461,8.845-13.009,8.845-21.346S239.587,39.938,234.123,34.478 M212.76,23.841c8.835,0,16.835,3.581,22.626,9.367
		c5.793,5.79,9.377,13.786,9.377,22.615c0,8.829-3.584,16.826-9.377,22.616c-5.791,5.786-13.791,9.367-22.626,9.367
		s-16.835-3.581-22.625-9.367c-5.794-5.79-9.377-13.787-9.377-22.616c0-8.829,3.583-16.825,9.377-22.615
		C195.925,27.421,203.925,23.841,212.76,23.841z"/>
	<path fill="#197BB2" d="M231.074,42.585c0.065-6.233-1.641-11.236-5.133-13.531l-0.001,0.002c-0.243-0.16-0.482-0.3-0.715-0.42
		c-3.028-1.563-6.859-0.989-10.813,1.279c-4.104,2.354-8.31,6.504-11.913,11.99c-1.022,1.558-2.002,3.231-2.918,5.007
		c-3.806,7.374-5.75,15.022-5.816,21.422c-0.065,6.234,1.642,11.238,5.133,13.533l0.001-0.002c0.244,0.159,0.482,0.3,0.714,0.42
		c3.029,1.563,6.859,0.988,10.814-1.279c4.104-2.354,8.31-6.506,11.914-11.992c1.023-1.557,2.002-3.231,2.919-5.007
		C229.064,56.633,231.009,48.985,231.074,42.585 M226.923,27.56c4.036,2.652,6.011,8.206,5.939,15.04
		c-0.068,6.668-2.078,14.605-6.012,22.228c-0.938,1.819-1.95,3.547-3.017,5.17c-3.764,5.729-8.184,10.081-12.518,12.566
		c-4.483,2.571-8.912,3.176-12.523,1.313c-0.308-0.159-0.602-0.331-0.876-0.51v-0.004c-4.037-2.652-6.012-8.208-5.94-15.042
		c0.069-6.668,2.08-14.605,6.014-22.228c0.938-1.819,1.95-3.547,3.016-5.169c3.763-5.729,8.182-10.08,12.516-12.565
		c4.484-2.571,8.913-3.176,12.524-1.313c0.308,0.159,0.603,0.33,0.877,0.511V27.56z"/>
	
		<rect x="182.258" y="54.723" transform="matrix(-0.4143 0.9101 -0.9101 -0.4143 351.6107 -115.3878)" fill="#197BB2" width="61.347" height="1.43"/>
	<polygon fill="#197BB2" points="194.286,29.977 244.155,53.104 243.555,54.406 193.686,31.278 	"/>
	
		<rect x="181.385" y="55.733" transform="matrix(-0.91 -0.4146 0.4146 -0.91 382.7066 195.9755)" fill="#197BB2" width="62.48" height="1.43"/>
	
		<rect x="179.558" y="70.728" transform="matrix(-0.9093 -0.4162 0.4162 -0.9093 364.0469 222.2473)" fill="#197BB2" width="53.379" height="1.43"/>
</g>
</svg>
